<?xml version="1.0" standalone="no"?>
<!DOCTYPE svg PUBLIC "-//W3C//DTD SVG 20010904//EN"
 "http://www.w3.org/TR/2001/REC-SVG-20010904/DTD/svg10.dtd">
<svg version="1.0" xmlns="http://www.w3.org/2000/svg"
 width="606.000000pt" height="561.000000pt" viewBox="0 0 606.000000 561.000000"
 preserveAspectRatio="xMidYMid meet">

<g transform="translate(0.000000,561.000000) scale(0.100000,-0.100000)"
fill="#000000" stroke="none">
<path d="M1636 4419 c-44 -110 -41 -303 9 -467 56 -186 136 -328 294 -521 56
-68 313 -327 412 -416 31 -27 71 -64 90 -80 36 -33 218 -178 259 -208 14 -9
59 -42 100 -71 l75 -55 12 27 c7 15 10 42 8 60 -6 39 -39 108 -59 119 -71 41
-308 292 -390 413 -111 164 -141 223 -177 348 -30 102 -33 274 -6 315 9 15 25
27 33 27 48 0 140 -120 225 -294 23 -47 47 -86 54 -86 7 0 24 9 39 21 85 67
-42 312 -289 554 -71 69 -144 130 -197 163 -110 68 -291 146 -395 170 l-82 19
-15 -38z"/>
<path d="M4290 4435 c-126 -34 -270 -100 -385 -174 -175 -113 -380 -344 -469
-531 -39 -82 -44 -116 -21 -160 13 -25 59 -51 69 -39 1 2 19 39 39 82 48 101
118 211 163 259 75 80 114 37 114 -126 0 -132 -35 -249 -121 -406 -78 -141
-281 -378 -436 -509 -63 -53 -98 -124 -90 -184 3 -21 8 -41 10 -44 7 -6 296
199 317 226 3 3 30 26 60 51 171 140 414 376 544 530 109 130 150 187 206 288
110 199 157 378 146 551 -6 102 -32 211 -50 210 -6 0 -49 -11 -96 -24z"/>
<path d="M2920 3755 l0 -105 -105 0 -105 0 0 -100 0 -100 105 0 105 0 0 -105
0 -105 100 0 100 0 0 105 0 105 105 0 105 0 0 100 0 100 -105 0 -105 0 0 105
0 105 -100 0 -100 0 0 -105z"/>
<path d="M3748 3752 c-23 -71 -71 -161 -137 -257 -99 -144 -153 -208 -368
-433 -29 -30 -62 -73 -73 -96 -21 -44 -27 -111 -11 -121 21 -13 280 220 390
351 39 46 135 204 158 259 36 87 64 219 61 287 l-3 63 -17 -53z"/>
<path d="M2281 3720 c-4 -256 179 -544 513 -810 92 -73 106 -76 105 -20 -1 63
-73 158 -288 377 -27 28 -115 137 -156 195 -40 56 -135 220 -135 233 0 6 -3
15 -7 19 -5 4 -13 24 -19 44 -11 35 -12 34 -13 -38z"/>
<path d="M2310 2045 c0 -8 9 -15 19 -15 46 0 51 -20 51 -215 0 -195 -5 -215
-51 -215 -10 0 -19 -7 -19 -15 0 -13 29 -15 200 -15 l200 0 0 65 c0 57 -2 65
-19 65 -14 0 -21 -10 -26 -32 -12 -53 -20 -58 -106 -58 l-79 0 0 100 0 100 80
0 c73 0 80 2 80 20 0 18 -7 20 -80 20 l-80 0 0 85 0 86 71 -3 c76 -3 82 -7 94
-60 4 -19 12 -28 25 -28 18 0 20 7 20 65 l0 65 -190 0 c-162 0 -190 -2 -190
-15z"/>
<path d="M2760 2047 c0 -7 14 -18 30 -24 l30 -11 0 -197 0 -197 -30 -11 c-16
-6 -30 -17 -30 -24 0 -10 28 -13 115 -13 96 0 115 3 115 15 0 8 -9 15 -19 15
-40 0 -51 26 -51 121 l0 89 90 0 90 0 0 -96 0 -96 -30 -11 c-16 -6 -30 -17
-30 -24 0 -10 28 -13 115 -13 87 0 115 3 115 13 0 7 -13 18 -30 24 l-30 11 0
197 0 197 30 11 c17 6 30 17 30 24 0 10 -28 13 -115 13 -87 0 -115 -3 -115
-13 0 -7 14 -18 30 -24 30 -11 30 -11 30 -92 l0 -81 -90 0 -90 0 0 74 c0 79
13 106 51 106 10 0 19 7 19 15 0 12 -19 15 -115 15 -87 0 -115 -3 -115 -13z"/>
<path d="M3310 2046 c0 -8 14 -17 30 -21 l30 -7 0 -203 0 -203 -30 -7 c-16 -4
-30 -13 -30 -21 0 -11 22 -14 115 -14 87 0 115 3 115 13 0 7 -13 18 -30 24
-30 11 -30 11 -30 92 0 79 1 81 24 81 21 0 32 -13 66 -79 54 -103 74 -121 144
-128 52 -5 56 -4 56 16 0 11 -6 21 -13 21 -20 0 -43 28 -91 111 l-43 72 44 42
c40 39 43 45 43 94 0 44 -4 57 -28 81 -40 40 -88 50 -239 50 -108 0 -133 -3
-133 -14z m270 -46 c15 -15 20 -33 20 -74 0 -72 -26 -106 -81 -106 l-39 0 0
100 0 100 40 0 c27 0 47 -7 60 -20z"/>
<path d="M2168 1348 c8 -8 12 -46 12 -103 0 -57 -4 -95 -12 -103 -9 -9 -7 -12
13 -12 l24 0 -3 115 c-3 110 -4 115 -25 115 -16 0 -18 -3 -9 -12z"/>
<path d="M2475 1245 c0 -114 0 -115 24 -115 19 0 21 2 11 15 -7 8 -11 37 -9
67 4 96 0 148 -13 148 -10 0 -13 -30 -13 -115z"/>
<path d="M4049 1347 c6 -8 9 -48 7 -103 -3 -96 0 -114 18 -114 8 0 10 34 8
115 -3 108 -4 115 -24 115 -16 0 -18 -3 -9 -13z"/>
<path d="M425 1235 c0 -87 3 -105 15 -105 12 0 15 18 15 105 0 87 -3 105 -15
105 -12 0 -15 -18 -15 -105z"/>
<path d="M531 1323 c7 -10 15 -20 16 -22 2 -2 3 5 3 17 0 14 -6 22 -16 22 -14
0 -15 -3 -3 -17z"/>
<path d="M1435 1235 c0 -98 1 -105 20 -105 19 0 20 7 20 105 0 98 -1 105 -20
105 -19 0 -20 -7 -20 -105z"/>
<path d="M1570 1321 c13 -26 13 -64 -1 -78 -8 -8 -8 -13 0 -17 15 -10 14 -69
-1 -84 -9 -9 -7 -12 13 -12 24 0 24 0 24 105 0 103 -1 105 -23 105 -19 0 -21
-3 -12 -19z"/>
<path d="M2865 1235 c0 -87 3 -105 15 -105 12 0 15 18 15 105 0 87 -3 105 -15
105 -12 0 -15 -18 -15 -105z"/>
<path d="M2950 1320 c11 -11 20 -27 20 -36 0 -24 -19 -54 -35 -54 -26 0 42
-99 68 -100 4 0 -6 21 -24 46 l-31 46 21 22 c27 28 27 72 2 86 -32 16 -42 11
-21 -10z"/>
<path d="M2331 1323 c0 -6 -8 -19 -17 -27 -8 -9 -11 -16 -5 -16 7 0 11 -27 11
-70 0 -38 2 -70 4 -70 2 0 13 -3 23 -6 15 -6 16 -4 6 7 -8 7 -13 39 -13 75 0
57 2 63 23 67 22 4 22 4 0 6 -14 1 -23 9 -26 24 -2 12 -5 17 -6 10z"/>
<path d="M673 1283 c-15 -6 -17 -33 -3 -33 6 0 10 6 10 14 0 8 6 17 13 19 6 3
8 5 2 5 -5 0 -16 -2 -22 -5z"/>
<path d="M728 1277 c6 -7 12 -41 14 -77 2 -35 8 -65 13 -67 13 -4 7 128 -7
145 -6 6 -15 12 -20 12 -7 0 -7 -5 0 -13z"/>
<path d="M942 1270 c14 -22 24 -19 15 5 -4 8 -11 15 -17 15 -6 0 -6 -7 2 -20z"/>
<path d="M1096 1208 c38 -90 37 -120 -8 -138 -17 -6 -18 -9 -6 -9 27 -1 53 33
72 96 10 32 26 75 36 96 18 36 18 37 -1 37 -11 0 -17 -4 -14 -10 7 -12 -25
-120 -36 -120 -9 0 -39 87 -39 112 0 11 -7 18 -20 18 -18 0 -17 -6 16 -82z"/>
<path d="M1742 1274 c-18 -12 -22 -25 -22 -64 0 -41 4 -52 24 -66 14 -8 35
-14 48 -11 21 4 20 4 -4 6 -27 1 -48 25 -48 55 0 12 11 16 50 16 46 0 50 2 50
23 0 49 -55 72 -98 41z m66 -6 c7 -7 12 -20 12 -30 0 -14 -8 -18 -40 -18 -32
0 -40 4 -40 18 0 22 19 42 40 42 9 0 21 -5 28 -12z"/>
<path d="M1961 1281 c-7 -5 -12 -14 -10 -20 3 -7 11 -3 21 9 18 21 13 26 -11
11z"/>
<path d="M2013 1279 c14 -8 18 -22 17 -62 -2 -78 -1 -87 13 -87 9 0 11 18 9
67 -4 71 -14 93 -41 93 -14 -1 -13 -2 2 -11z"/>
<path d="M2550 1281 c23 -6 25 -12 28 -79 3 -66 5 -72 24 -72 17 0 19 3 10 12
-7 7 -12 37 -12 68 0 62 -12 80 -49 79 l-26 -1 25 -7z"/>
<path d="M3120 1270 c-13 -13 -20 -33 -20 -60 0 -27 7 -47 20 -60 20 -20 74
-28 84 -12 3 5 -8 7 -23 4 -21 -3 -33 2 -45 19 -27 40 -21 49 34 49 46 0 50 2
50 24 0 52 -62 74 -100 36z m74 -6 c13 -35 7 -44 -34 -44 -41 0 -47 8 -30 41
13 23 55 25 64 3z"/>
<path d="M3402 1270 c15 -23 28 -26 28 -6 0 8 -7 17 -16 20 -24 9 -25 8 -12
-14z"/>
<path d="M3540 1270 c-13 -13 -20 -33 -20 -60 0 -39 26 -80 50 -80 6 0 1 9
-10 20 -13 13 -20 33 -20 60 0 27 7 47 20 60 11 11 16 20 10 20 -5 0 -19 -9
-30 -20z"/>
<path d="M3765 1210 c0 -64 3 -80 15 -80 12 0 15 13 14 65 -1 36 -5 72 -8 80
-13 35 -21 10 -21 -65z"/>
<path d="M3834 1275 c8 -8 17 -15 20 -15 3 0 6 7 6 15 0 9 -9 15 -21 15 -18 0
-19 -2 -5 -15z"/>
<path d="M3967 1272 c-22 -24 -23 -105 -1 -126 8 -9 27 -15 42 -15 21 1 23 2
7 6 -35 9 -45 24 -45 73 0 52 17 76 50 67 11 -3 18 -1 14 4 -9 15 -50 10 -67
-9z"/>
<path d="M4260 1270 c13 -23 20 -26 20 -6 0 8 -7 16 -15 20 -13 4 -14 2 -5
-14z"/>
<path d="M4531 1276 c-7 -8 -8 -17 -3 -19 4 -3 13 3 20 14 14 22 0 26 -17 5z"/>
<path d="M4588 1283 c7 -3 12 -26 12 -63 0 -59 7 -90 19 -90 4 0 5 33 3 73 -4
67 -13 88 -37 86 -5 0 -4 -3 3 -6z"/>
<path d="M4755 1270 c-24 -27 -25 -93 -1 -119 20 -22 61 -27 86 -11 11 7 6 8
-17 4 -20 -4 -39 -2 -48 6 -21 17 -20 103 1 124 8 9 11 16 6 16 -5 0 -17 -9
-27 -20z"/>
<path d="M4822 1271 c7 -11 16 -17 20 -14 10 5 -10 33 -23 33 -5 0 -4 -9 3
-19z"/>
<path d="M4960 1270 c-13 -13 -20 -33 -20 -60 0 -27 7 -47 20 -60 20 -20 74
-28 84 -12 3 5 -7 7 -22 5 -39 -5 -54 9 -59 60 -4 36 -1 49 16 66 11 11 17 21
11 21 -5 0 -19 -9 -30 -20z"/>
<path d="M5018 1283 c6 -2 12 -11 12 -19 0 -8 5 -14 10 -14 16 0 11 27 -6 34
-9 3 -19 6 -22 5 -4 0 -1 -3 6 -6z"/>
<path d="M5168 1279 c-34 -19 -35 -101 -2 -134 16 -16 69 -21 78 -7 3 5 -8 7
-23 4 -21 -3 -33 2 -45 19 -28 41 -21 49 40 49 l56 0 -6 28 c-12 46 -57 66
-98 41z m70 -31 c3 -26 1 -28 -32 -28 -41 0 -47 7 -35 38 7 18 15 23 36 20 22
-2 29 -9 31 -30z"/>
<path d="M5432 1270 c14 -22 24 -19 15 5 -4 8 -11 15 -17 15 -6 0 -6 -7 2 -20z"/>
<path d="M5622 1270 c14 -22 24 -19 15 5 -4 8 -11 15 -17 15 -6 0 -6 -7 2 -20z"/>
<path d="M877 1274 c-18 -18 -5 -45 33 -64 31 -16 40 -26 40 -46 0 -14 4 -23
10 -19 24 15 10 52 -27 71 -21 11 -40 29 -43 43 -3 12 -8 19 -13 15z"/>
<path d="M3332 1268 c-7 -7 -12 -33 -12 -60 0 -39 4 -50 24 -64 14 -8 35 -14
48 -11 21 4 20 4 -4 6 -36 1 -51 32 -46 92 3 27 4 49 4 49 -1 0 -7 -5 -14 -12z"/>
<path d="M3628 1222 c3 -45 0 -62 -13 -75 -9 -9 -12 -17 -7 -17 39 0 63 103
31 135 -14 14 -15 10 -11 -43z"/>
<path d="M4190 1255 c0 -18 11 -32 40 -50 42 -26 49 -42 28 -64 -11 -10 -10
-11 4 -6 19 8 33 39 23 55 -3 6 -21 17 -38 26 -37 19 -49 34 -42 52 2 6 0 12
-5 12 -6 0 -10 -11 -10 -25z"/>
<path d="M5368 1274 c-19 -18 -6 -45 31 -64 29 -14 41 -27 43 -47 4 -23 6 -25
12 -10 12 26 1 45 -38 64 -24 11 -36 24 -38 41 -2 13 -6 20 -10 16z"/>
<path d="M5558 1274 c-19 -18 -6 -45 31 -64 29 -14 41 -27 43 -47 4 -23 6 -25
12 -10 12 26 1 45 -38 64 -24 11 -36 24 -38 41 -2 13 -6 20 -10 16z"/>
<path d="M1949 1201 c-21 -16 -22 -22 -11 -45 9 -20 18 -26 39 -25 24 2 25 2
6 6 -17 3 -23 11 -23 32 0 15 5 32 12 39 19 19 3 14 -23 -7z"/>
<path d="M657 1203 c-4 -3 -7 -19 -7 -34 0 -27 16 -40 48 -38 12 0 9 3 -7 10
-19 7 -22 15 -19 39 4 29 -1 37 -15 23z"/>
<path d="M4517 1203 c-11 -11 -8 -48 5 -61 7 -7 21 -12 33 -11 18 0 18 1 -4
10 -20 8 -22 14 -17 39 5 28 -2 38 -17 23z"/>
<path d="M538 1149 c-17 -18 -17 -19 2 -19 13 0 20 7 20 20 0 24 0 24 -22 -1z"/>
<path d="M870 1158 c0 -9 5 -20 11 -23 17 -11 18 -2 3 19 -12 17 -14 17 -14 4z"/>
<path d="M5360 1158 c0 -9 5 -20 11 -23 17 -11 18 -2 3 19 -12 17 -14 17 -14
4z"/>
<path d="M5550 1158 c0 -9 5 -20 11 -23 17 -11 18 -2 3 19 -12 17 -14 17 -14
4z"/>
<path d="M4190 1145 c7 -8 17 -15 22 -15 5 0 3 7 -6 15 -8 8 -18 15 -22 15 -3
0 -1 -7 6 -15z"/>
</g>
</svg>
